<svg xmlns="http://www.w3.org/2000/svg" xmlns:xlink="http://www.w3.org/1999/xlink" width="172" height="54" viewBox="0 0 172 54">
    <defs>
        <path id="prefix__a" d="M0 31.714L171.418 31.714 171.418 0 0 0z"/>
    </defs>
    <g fill="none" fill-rule="evenodd" transform="translate(0 11.026)">
        <path fill="#FEFEFE" d="M27.324 13.825c0-3.735-2.52-6.215-6.3-6.215H18.09v12.472h2.936c3.78 0 6.299-2.543 6.299-6.257m7.21 0c0 7.346-5.47 12.608-13.177 12.608H11.026V1.259h10.33c7.728 0 13.177 5.21 13.177 12.566M43.507 14.606h7.96c-.595-1.94-2.013-2.988-4.06-2.988-1.977 0-3.351 1.06-3.9 2.988zm14.642 1.934c0 .585-.052 1.17-.14 1.77H43.388c.443 2.228 1.878 3.38 4.02 3.38 1.583 0 2.908-.685 3.56-1.821h6.749c-1.386 4.432-5.37 7.2-10.31 7.2-6.143 0-10.695-4.428-10.695-10.36 0-5.955 4.515-10.332 10.696-10.332 6.347 0 10.741 4.465 10.741 10.162zM75.743 16.717c0-2.52-1.868-4.413-4.409-4.413-2.556 0-4.408 1.893-4.408 4.413 0 2.536 1.867 4.43 4.408 4.43 2.54 0 4.409-1.894 4.409-4.43zm6.45-9.725v19.42H76.95l-.58-1.373c-1.613 1.288-3.655 2.03-5.942 2.03-6.022 0-10.325-4.332-10.325-10.367 0-6.015 4.303-10.295 10.325-10.295 2.318 0 4.39.764 6.016 2.087l.695-1.502h5.054z"/>
        <mask id="prefix__b" fill="#fff">
            <use xlink:href="#prefix__a"/>
        </mask>
        <path fill="#FEFEFE" d="M86.468 26.433L93.251 26.433 93.251 0 86.468 0zM108.4 18.16L107.524 18.16 107.524 19.879 105.031 19.879 105.031 18.16 100.374 18.16 100.374 17.692 103.481 10.311 106.057 10.311 103.655 16.016 105.207 16.016 105.775 13.909 107.523 13.909 107.523 16.016 108.4 16.016zM115.746 12.318L115.746 13.921 119.027 13.921 119.027 16.35 115.746 16.35 115.746 19.878 112.908 19.878 112.908 9.808 119.407 9.808 119.407 12.318zM120.715 11.137h2.672V8.866h-2.672v2.271zm-.02 8.741h2.714V12.11h-2.714v7.77zM132.902 15.141v4.737h-2.714v-4.367c0-.904-.344-1.353-1.026-1.353-.847 0-1.334.583-1.334 1.572v4.148h-2.714V12.11h1.905l.372.802c.587-.645 1.461-1.031 2.48-1.031 1.83 0 3.03 1.282 3.03 3.261M140.327 15.992c0-1.008-.747-1.765-1.763-1.765-1.023 0-1.764.757-1.764 1.765 0 1.015.748 1.772 1.764 1.772s1.763-.757 1.763-1.772zm2.581-3.89v7.769h-2.098l-.232-.55c-.645.515-1.462.812-2.377.812-2.409 0-4.13-1.733-4.13-4.147 0-2.406 1.721-4.119 4.13-4.119.928 0 1.757.305 2.407.835l.278-.601h2.022zM152.403 15.141v4.737h-2.713v-4.367c0-.904-.344-1.353-1.027-1.353-.846 0-1.333.583-1.333 1.572v4.148h-2.713V12.11h1.903l.373.802c.586-.645 1.46-1.031 2.48-1.031 1.829 0 3.03 1.282 3.03 3.261M157.922 20.133c-2.526 0-4.35-1.746-4.35-4.15 0-2.403 1.815-4.116 4.359-4.116 2.213 0 3.874 1.376 4.17 3.443h-2.643c-.228-.634-.83-1.045-1.536-1.045-.954 0-1.632.714-1.632 1.727 0 1.012.686 1.743 1.632 1.743.728 0 1.318-.44 1.543-1.133h2.665c-.307 2.11-1.99 3.531-4.208 3.531zM165.561 15.147h3.184c-.237-.776-.805-1.195-1.624-1.195-.79 0-1.34.424-1.56 1.195zm5.857.774c0 .234-.02.468-.055.708h-5.85c.178.891.752 1.352 1.608 1.352.634 0 1.163-.274 1.425-.728h2.7c-.555 1.773-2.149 2.88-4.125 2.88-2.458 0-4.278-1.771-4.278-4.145 0-2.381 1.805-4.133 4.278-4.133 2.54 0 4.297 1.786 4.297 4.065v.001zM3.33 11.213c1.982 0 3.33-1.372 3.33-3.326 0-1.913-1.517-3.327-3.33-3.327C1.434 4.56 0 5.974 0 7.928c0 1.955 1.433 3.285 3.33 3.285M0 16.505v15.21h1.334c3.01 0 5.448-2.406 5.448-5.373v-9.837H0z" mask="url(#prefix__b)"/>
    </g>
</svg>
