<?xml version="1.0" encoding="UTF-8" standalone="no"?>
<svg
   width="355"
   height="65.678459"
   viewBox="0 0 355 65.678459"
   version="1.1"
   id="svg14"
   sodipodi:docname="logo-black.svg"
   inkscape:version="1.1 (c68e22c387, 2021-05-23)"
   xmlns:inkscape="http://www.inkscape.org/namespaces/inkscape"
   xmlns:sodipodi="http://sodipodi.sourceforge.net/DTD/sodipodi-0.dtd"
   xmlns:xlink="http://www.w3.org/1999/xlink"
   xmlns="http://www.w3.org/2000/svg"
   xmlns:svg="http://www.w3.org/2000/svg">
  <sodipodi:namedview
     id="namedview16"
     pagecolor="#ffffff"
     bordercolor="#666666"
     borderopacity="1.0"
     inkscape:pageshadow="2"
     inkscape:pageopacity="0.0"
     inkscape:pagecheckerboard="0"
     showgrid="false"
     inkscape:zoom="6.1511628"
     inkscape:cx="70.311909"
     inkscape:cy="26.58034"
     inkscape:window-width="1920"
     inkscape:window-height="1017"
     inkscape:window-x="1912"
     inkscape:window-y="-8"
     inkscape:window-maximized="1"
     inkscape:current-layer="svg14"
     fit-margin-top="0"
     fit-margin-left="0"
     fit-margin-right="0"
     fit-margin-bottom="0" />
  <defs
     id="defs3">
    <path
       id="prefix__a"
       d="M 0,31.714 H 171.418 V 0 H 0 Z" />
  </defs>
  <g
     fill="none"
     fill-rule="evenodd"
     transform="scale(2.070961)"
     id="g12">
    <path
       fill="#000000"
       d="m 27.324,13.825 c 0,-3.735 -2.52,-6.215 -6.3,-6.215 H 18.09 v 12.472 h 2.936 c 3.78,0 6.299,-2.543 6.299,-6.257 m 7.21,0 c 0,7.346 -5.47,12.608 -13.177,12.608 H 11.026 V 1.259 h 10.33 c 7.728,0 13.177,5.21 13.177,12.566 m 8.974,0.781 h 7.96 c -0.595,-1.94 -2.013,-2.988 -4.06,-2.988 -1.977,0 -3.351,1.06 -3.9,2.988 z m 14.642,1.934 c 0,0.585 -0.052,1.17 -0.14,1.77 H 43.388 c 0.443,2.228 1.878,3.38 4.02,3.38 1.583,0 2.908,-0.685 3.56,-1.821 h 6.749 c -1.386,4.432 -5.37,7.2 -10.31,7.2 -6.143,0 -10.695,-4.428 -10.695,-10.36 0,-5.955 4.515,-10.332 10.696,-10.332 6.347,0 10.741,4.465 10.741,10.162 z m 17.594,0.177 c 0,-2.52 -1.868,-4.413 -4.409,-4.413 -2.556,0 -4.408,1.893 -4.408,4.413 0,2.536 1.867,4.43 4.408,4.43 2.54,0 4.409,-1.894 4.409,-4.43 z m 6.45,-9.725 v 19.42 H 76.95 l -0.58,-1.373 c -1.613,1.288 -3.655,2.03 -5.942,2.03 -6.022,0 -10.325,-4.332 -10.325,-10.367 0,-6.015 4.303,-10.295 10.325,-10.295 2.318,0 4.39,0.764 6.016,2.087 l 0.695,-1.502 z"
       id="path5" />
    <mask
       id="prefix__b"
       fill="#ffffff">
      <use
         xlink:href="#prefix__a"
         id="use7"
         x="0"
         y="0"
         width="100%"
         height="100%" />
    </mask>
    <path
       fill="#000000"
       d="m 86.468,26.433 h 6.783 V 0 H 86.468 Z M 108.4,18.16 h -0.876 v 1.719 h -2.493 V 18.16 h -4.657 v -0.468 l 3.107,-7.381 h 2.576 l -2.402,5.705 h 1.552 l 0.568,-2.107 h 1.748 v 2.107 h 0.877 z m 7.346,-5.842 v 1.603 h 3.281 v 2.429 h -3.281 v 3.528 h -2.838 V 9.808 h 6.499 v 2.51 z m 4.969,-1.181 h 2.672 V 8.866 h -2.672 z m -0.02,8.741 h 2.714 V 12.11 h -2.714 v 7.77 z m 12.207,-4.737 v 4.737 h -2.714 v -4.367 c 0,-0.904 -0.344,-1.353 -1.026,-1.353 -0.847,0 -1.334,0.583 -1.334,1.572 v 4.148 h -2.714 V 12.11 h 1.905 l 0.372,0.802 c 0.587,-0.645 1.461,-1.031 2.48,-1.031 1.83,0 3.03,1.282 3.03,3.261 m 7.426,0.85 c 0,-1.008 -0.747,-1.765 -1.763,-1.765 -1.023,0 -1.764,0.757 -1.764,1.765 0,1.015 0.748,1.772 1.764,1.772 1.016,0 1.763,-0.757 1.763,-1.772 z m 2.581,-3.89 v 7.769 h -2.098 l -0.232,-0.55 c -0.645,0.515 -1.462,0.812 -2.377,0.812 -2.409,0 -4.13,-1.733 -4.13,-4.147 0,-2.406 1.721,-4.119 4.13,-4.119 0.928,0 1.757,0.305 2.407,0.835 l 0.278,-0.601 h 2.022 z m 9.495,3.039 v 4.737 h -2.713 v -4.367 c 0,-0.904 -0.344,-1.353 -1.027,-1.353 -0.846,0 -1.333,0.583 -1.333,1.572 v 4.148 h -2.713 V 12.11 h 1.903 l 0.373,0.802 c 0.586,-0.645 1.46,-1.031 2.48,-1.031 1.829,0 3.03,1.282 3.03,3.261 m 5.519,4.991 c -2.526,0 -4.35,-1.746 -4.35,-4.15 0,-2.403 1.815,-4.116 4.359,-4.116 2.213,0 3.874,1.376 4.17,3.443 h -2.643 c -0.228,-0.634 -0.83,-1.045 -1.536,-1.045 -0.954,0 -1.632,0.714 -1.632,1.727 0,1.012 0.686,1.743 1.632,1.743 0.728,0 1.318,-0.44 1.543,-1.133 h 2.665 c -0.307,2.11 -1.99,3.531 -4.208,3.531 z m 7.639,-4.986 h 3.184 c -0.237,-0.776 -0.805,-1.195 -1.624,-1.195 -0.79,0 -1.34,0.424 -1.56,1.195 z m 5.857,0.774 c 0,0.234 -0.02,0.468 -0.055,0.708 h -5.85 c 0.178,0.891 0.752,1.352 1.608,1.352 0.634,0 1.163,-0.274 1.425,-0.728 h 2.7 c -0.555,1.773 -2.149,2.88 -4.125,2.88 -2.458,0 -4.278,-1.771 -4.278,-4.145 0,-2.381 1.805,-4.133 4.278,-4.133 2.54,0 4.297,1.786 4.297,4.065 z M 3.33,11.213 c 1.982,0 3.33,-1.372 3.33,-3.326 C 6.66,5.974 5.143,4.56 3.33,4.56 1.434,4.56 0,5.974 0,7.928 0,9.883 1.433,11.213 3.33,11.213 M 0,16.505 v 15.21 h 1.334 c 3.01,0 5.448,-2.406 5.448,-5.373 v -9.837 z"
       mask="url(#prefix__b)"
       id="path10" />
  </g>
</svg>
